# xmcd
#
# Track frame offsets:
#	150
#	12595
#	26560
#	36301
#	46796
#	59781
#	74831
#	87668
#	102242
#	115259
#	131189
#	144045
#
# Disc length: 2033 seconds
#
# Revision: 1
# Processed by: cddbd v1.5.2PL0 Copyright (c) Steve Scherf et al.
# Submitted via: audiograbber 1.83.01
#
DISCID=b407ef0c
DTITLE=Tommy Inc. - Hithiking Vol.1
DYEAR=2011
DGENRE=Pop
TTITLE0=Tommy Inc. - I Feel gooed
TTITLE1=Tommy Inc. - My girl
TTITLE2=Tommy Inc. - Mr. Pitiful
TTITLE3=Tommy Inc. - Midnight hour
TTITLE4=Tommy Inc. - Soul Man
TTITLE5=Tommy Inc. - Don't stop
TTITLE6=Tommy Inc. - Love really hurts
TTITLE7=Tommy Inc. - All over now
TTITLE8=Tommy Inc. - It takes two
TTITLE9=Tommy Inc. - Long train running
TTITLE10=Tommy Inc. - Saw her standing there
TTITLE11=Tommy Inc. - Great balls of fire
EXTD=
EXTT0=
EXTT1=
EXTT2=
EXTT3=
EXTT4=
EXTT5=
EXTT6=
EXTT7=
EXTT8=
EXTT9=
EXTT10=
EXTT11=
PLAYORDER=
